<mxfile host="app.diagrams.net" agent="Mozilla/5.0 (Windows NT 10.0; Win64; x64) AppleWebKit/537.36 (KHTML, like Gecko) Chrome/135.0.0.0 Safari/537.36" version="26.2.6">
  <diagram name="Страница — 1" id="lUlKYjcFyBsAl9ntajWb">
    <mxGraphModel dx="570" dy="270" grid="1" gridSize="10" guides="1" tooltips="1" connect="1" arrows="1" fold="1" page="1" pageScale="1" pageWidth="827" pageHeight="1169" math="0" shadow="0">
      <root>
        <mxCell id="0" />
        <mxCell id="1" parent="0" />
        <mxCell id="XOXxncbkgTdSZFHKZBEe-1" value="" style="rounded=0;whiteSpace=wrap;html=1;" vertex="1" parent="1">
          <mxGeometry x="270" y="120" width="290" height="180" as="geometry" />
        </mxCell>
        <mxCell id="XOXxncbkgTdSZFHKZBEe-2" value="" style="endArrow=none;html=1;rounded=0;exitX=0.146;exitY=1.001;exitDx=0;exitDy=0;exitPerimeter=0;entryX=0.146;entryY=0.001;entryDx=0;entryDy=0;entryPerimeter=0;" edge="1" parent="1">
          <mxGeometry width="50" height="50" relative="1" as="geometry">
            <mxPoint x="320.00000000000006" y="299.99999999999994" as="sourcePoint" />
            <mxPoint x="320.00000000000006" y="120" as="targetPoint" />
          </mxGeometry>
        </mxCell>
        <mxCell id="XOXxncbkgTdSZFHKZBEe-3" value="" style="endArrow=none;html=1;rounded=0;exitX=0.146;exitY=1.001;exitDx=0;exitDy=0;exitPerimeter=0;entryX=0.146;entryY=0.001;entryDx=0;entryDy=0;entryPerimeter=0;" edge="1" parent="1">
          <mxGeometry width="50" height="50" relative="1" as="geometry">
            <mxPoint x="430" y="300" as="sourcePoint" />
            <mxPoint x="430" y="120" as="targetPoint" />
          </mxGeometry>
        </mxCell>
        <mxCell id="XOXxncbkgTdSZFHKZBEe-4" value="&lt;span style=&quot;line-height: 107%; font-family: &amp;quot;Times New Roman&amp;quot;, serif;&quot; lang=&quot;EN-US&quot;&gt;&lt;font style=&quot;font-size: 10px;&quot;&gt;IdStudent&lt;/font&gt;&lt;/span&gt;" style="text;html=1;align=center;verticalAlign=middle;whiteSpace=wrap;rounded=0;" vertex="1" parent="1">
          <mxGeometry x="270" y="120" width="50" height="20" as="geometry" />
        </mxCell>
        <mxCell id="XOXxncbkgTdSZFHKZBEe-5" value="&lt;span style=&quot;line-height: 107%; font-family: &amp;quot;Times New Roman&amp;quot;, serif;&quot; lang=&quot;EN-US&quot;&gt;&lt;font style=&quot;font-size: 10px;&quot;&gt;Surname&lt;/font&gt;&lt;/span&gt;" style="text;html=1;align=center;verticalAlign=middle;whiteSpace=wrap;rounded=0;" vertex="1" parent="1">
          <mxGeometry x="320" y="120" width="110" height="20" as="geometry" />
        </mxCell>
        <mxCell id="XOXxncbkgTdSZFHKZBEe-8" value="" style="endArrow=none;html=1;entryX=1;entryY=1;entryDx=0;entryDy=0;" edge="1" parent="1">
          <mxGeometry width="50" height="50" relative="1" as="geometry">
            <mxPoint x="270" y="140" as="sourcePoint" />
            <mxPoint x="559.9999999999999" y="140" as="targetPoint" />
          </mxGeometry>
        </mxCell>
        <mxCell id="XOXxncbkgTdSZFHKZBEe-9" value="1531&lt;div&gt;1532&lt;/div&gt;&lt;div&gt;1533&lt;/div&gt;&lt;div&gt;1534&lt;/div&gt;&lt;div&gt;1535&lt;/div&gt;&lt;div&gt;1536&lt;/div&gt;&lt;div&gt;1537&lt;/div&gt;&lt;div&gt;1538&lt;/div&gt;&lt;div&gt;1539&lt;/div&gt;&lt;div&gt;1540&lt;/div&gt;" style="text;html=1;align=center;verticalAlign=middle;whiteSpace=wrap;rounded=0;" vertex="1" parent="1">
          <mxGeometry x="270" y="140" width="50" height="160" as="geometry" />
        </mxCell>
        <mxCell id="XOXxncbkgTdSZFHKZBEe-10" value="&lt;span style=&quot;line-height: 107%; font-family: &amp;quot;Times New Roman&amp;quot;, serif;&quot; lang=&quot;EN-US&quot;&gt;&lt;font style=&quot;font-size: 12px;&quot;&gt;Androsik&lt;/font&gt;&lt;/span&gt;&lt;div&gt;&lt;span style=&quot;line-height: 107%; font-family: &amp;quot;Times New Roman&amp;quot;, serif;&quot; lang=&quot;EN-US&quot;&gt;&lt;span style=&quot;line-height: 107%;&quot; lang=&quot;EN-US&quot;&gt;&lt;font style=&quot;font-size: 12px;&quot;&gt;Bogdanovich&lt;/font&gt;&lt;/span&gt;&lt;/span&gt;&lt;/div&gt;&lt;div&gt;&lt;span style=&quot;line-height: 107%; font-family: &amp;quot;Times New Roman&amp;quot;, serif;&quot; lang=&quot;EN-US&quot;&gt;&lt;span style=&quot;line-height: 107%;&quot; lang=&quot;EN-US&quot;&gt;&lt;span style=&quot;line-height: 107%;&quot; lang=&quot;EN-US&quot;&gt;&lt;font style=&quot;font-size: 12px;&quot;&gt;Bogomarov&lt;/font&gt;&lt;/span&gt;&lt;/span&gt;&lt;/span&gt;&lt;/div&gt;&lt;div&gt;&lt;span style=&quot;line-height: 107%; font-family: &amp;quot;Times New Roman&amp;quot;, serif;&quot; lang=&quot;EN-US&quot;&gt;&lt;span style=&quot;line-height: 107%;&quot; lang=&quot;EN-US&quot;&gt;&lt;span style=&quot;line-height: 107%;&quot; lang=&quot;EN-US&quot;&gt;&lt;span style=&quot;line-height: 107%;&quot; lang=&quot;EN-US&quot;&gt;&lt;font style=&quot;font-size: 12px;&quot;&gt;Bondarik&lt;/font&gt;&lt;/span&gt;&lt;/span&gt;&lt;/span&gt;&lt;/span&gt;&lt;/div&gt;&lt;div&gt;&lt;span style=&quot;line-height: 107%; font-family: &amp;quot;Times New Roman&amp;quot;, serif;&quot; lang=&quot;EN-US&quot;&gt;&lt;span style=&quot;line-height: 107%;&quot; lang=&quot;EN-US&quot;&gt;&lt;span style=&quot;line-height: 107%;&quot; lang=&quot;EN-US&quot;&gt;&lt;span style=&quot;line-height: 107%;&quot; lang=&quot;EN-US&quot;&gt;&lt;span style=&quot;line-height: 107%;&quot; lang=&quot;EN-US&quot;&gt;&lt;font style=&quot;font-size: 12px;&quot;&gt;Vilbik&lt;/font&gt;&lt;/span&gt;&lt;/span&gt;&lt;/span&gt;&lt;/span&gt;&lt;/span&gt;&lt;/div&gt;&lt;div&gt;&lt;span style=&quot;line-height: 107%; font-family: &amp;quot;Times New Roman&amp;quot;, serif;&quot; lang=&quot;EN-US&quot;&gt;&lt;span style=&quot;line-height: 107%;&quot; lang=&quot;EN-US&quot;&gt;&lt;span style=&quot;line-height: 107%;&quot; lang=&quot;EN-US&quot;&gt;&lt;span style=&quot;line-height: 107%;&quot; lang=&quot;EN-US&quot;&gt;&lt;span style=&quot;line-height: 107%;&quot; lang=&quot;EN-US&quot;&gt;&lt;span style=&quot;line-height: 107%;&quot; lang=&quot;EN-US&quot;&gt;&lt;font style=&quot;font-size: 12px;&quot;&gt;Volchkevich&lt;/font&gt;&lt;/span&gt;&lt;/span&gt;&lt;/span&gt;&lt;/span&gt;&lt;/span&gt;&lt;/span&gt;&lt;/div&gt;&lt;div&gt;&lt;span style=&quot;line-height: 107%; font-family: &amp;quot;Times New Roman&amp;quot;, serif;&quot; lang=&quot;EN-US&quot;&gt;&lt;span style=&quot;line-height: 107%;&quot; lang=&quot;EN-US&quot;&gt;&lt;span style=&quot;line-height: 107%;&quot; lang=&quot;EN-US&quot;&gt;&lt;span style=&quot;line-height: 107%;&quot; lang=&quot;EN-US&quot;&gt;&lt;span style=&quot;line-height: 107%;&quot; lang=&quot;EN-US&quot;&gt;&lt;span style=&quot;line-height: 107%;&quot; lang=&quot;EN-US&quot;&gt;&lt;span style=&quot;line-height: 107%;&quot; lang=&quot;EN-US&quot;&gt;&lt;font style=&quot;font-size: 12px;&quot;&gt;Vysotskaya&lt;/font&gt;&lt;/span&gt;&lt;/span&gt;&lt;/span&gt;&lt;/span&gt;&lt;/span&gt;&lt;/span&gt;&lt;/span&gt;&lt;/div&gt;&lt;div&gt;&lt;span style=&quot;line-height: 107%; font-family: &amp;quot;Times New Roman&amp;quot;, serif;&quot; lang=&quot;EN-US&quot;&gt;&lt;span style=&quot;line-height: 107%;&quot; lang=&quot;EN-US&quot;&gt;&lt;span style=&quot;line-height: 107%;&quot; lang=&quot;EN-US&quot;&gt;&lt;span style=&quot;line-height: 107%;&quot; lang=&quot;EN-US&quot;&gt;&lt;span style=&quot;line-height: 107%;&quot; lang=&quot;EN-US&quot;&gt;&lt;span style=&quot;line-height: 107%;&quot; lang=&quot;EN-US&quot;&gt;&lt;span style=&quot;line-height: 107%;&quot; lang=&quot;EN-US&quot;&gt;&lt;span style=&quot;line-height: 107%;&quot; lang=&quot;EN-US&quot;&gt;&lt;font style=&quot;font-size: 12px;&quot;&gt;Demyanchik&lt;/font&gt;&lt;/span&gt;&lt;/span&gt;&lt;/span&gt;&lt;/span&gt;&lt;/span&gt;&lt;/span&gt;&lt;/span&gt;&lt;/span&gt;&lt;/div&gt;&lt;div&gt;&lt;span style=&quot;line-height: 107%; font-family: &amp;quot;Times New Roman&amp;quot;, serif;&quot; lang=&quot;EN-US&quot;&gt;&lt;span style=&quot;line-height: 107%;&quot; lang=&quot;EN-US&quot;&gt;&lt;span style=&quot;line-height: 107%;&quot; lang=&quot;EN-US&quot;&gt;&lt;span style=&quot;line-height: 107%;&quot; lang=&quot;EN-US&quot;&gt;&lt;span style=&quot;line-height: 107%;&quot; lang=&quot;EN-US&quot;&gt;&lt;span style=&quot;line-height: 107%;&quot; lang=&quot;EN-US&quot;&gt;&lt;span style=&quot;line-height: 107%;&quot; lang=&quot;EN-US&quot;&gt;&lt;span style=&quot;line-height: 107%;&quot; lang=&quot;EN-US&quot;&gt;&lt;span style=&quot;line-height: 107%;&quot; lang=&quot;EN-US&quot;&gt;&lt;font style=&quot;font-size: 12px;&quot;&gt;Dyrda&lt;/font&gt;&lt;/span&gt;&lt;/span&gt;&lt;/span&gt;&lt;/span&gt;&lt;/span&gt;&lt;/span&gt;&lt;/span&gt;&lt;/span&gt;&lt;/span&gt;&lt;/div&gt;&lt;div&gt;&lt;span style=&quot;line-height: 107%; font-family: &amp;quot;Times New Roman&amp;quot;, serif;&quot; lang=&quot;EN-US&quot;&gt;&lt;span style=&quot;line-height: 107%;&quot; lang=&quot;EN-US&quot;&gt;&lt;span style=&quot;line-height: 107%;&quot; lang=&quot;EN-US&quot;&gt;&lt;span style=&quot;line-height: 107%;&quot; lang=&quot;EN-US&quot;&gt;&lt;span style=&quot;line-height: 107%;&quot; lang=&quot;EN-US&quot;&gt;&lt;span style=&quot;line-height: 107%;&quot; lang=&quot;EN-US&quot;&gt;&lt;span style=&quot;line-height: 107%;&quot; lang=&quot;EN-US&quot;&gt;&lt;span style=&quot;line-height: 107%;&quot; lang=&quot;EN-US&quot;&gt;&lt;span style=&quot;line-height: 107%;&quot; lang=&quot;EN-US&quot;&gt;&lt;span style=&quot;line-height: 107%;&quot; lang=&quot;EN-US&quot;&gt;&lt;font style=&quot;font-size: 12px;&quot;&gt;Ermakov&lt;/font&gt;&lt;/span&gt;&lt;/span&gt;&lt;/span&gt;&lt;/span&gt;&lt;/span&gt;&lt;/span&gt;&lt;/span&gt;&lt;/span&gt;&lt;/span&gt;&lt;/span&gt;&lt;/div&gt;" style="text;html=1;align=center;verticalAlign=middle;whiteSpace=wrap;rounded=0;" vertex="1" parent="1">
          <mxGeometry x="320" y="140" width="110" height="160" as="geometry" />
        </mxCell>
        <mxCell id="XOXxncbkgTdSZFHKZBEe-11" value="&lt;font style=&quot;font-size: 12px;&quot;&gt;&lt;span style=&quot;line-height: 107%; font-family: &amp;quot;Times New Roman&amp;quot;, serif;&quot; lang=&quot;EN-US&quot;&gt;Vladimir&lt;/span&gt;&lt;br&gt;&lt;/font&gt;&lt;div&gt;&lt;span style=&quot;line-height: 107%; font-family: &amp;quot;Times New Roman&amp;quot;, serif;&quot; lang=&quot;EN-US&quot;&gt;&lt;font style=&quot;font-size: 12px;&quot;&gt;Alexander&lt;/font&gt;&lt;/span&gt;&lt;/div&gt;&lt;div&gt;&lt;span style=&quot;line-height: 107%; font-family: &amp;quot;Times New Roman&amp;quot;, serif;&quot; lang=&quot;EN-US&quot;&gt;&lt;font style=&quot;font-size: 12px;&quot;&gt;Rodion&lt;/font&gt;&lt;/span&gt;&lt;/div&gt;&lt;div&gt;&lt;span style=&quot;line-height: 107%; font-family: &amp;quot;Times New Roman&amp;quot;, serif;&quot; lang=&quot;EN-US&quot;&gt;&lt;font style=&quot;font-size: 12px;&quot;&gt;Evgeny&lt;/font&gt;&lt;/span&gt;&lt;/div&gt;&lt;div&gt;&lt;span style=&quot;line-height: 107%; font-family: &amp;quot;Times New Roman&amp;quot;, serif;&quot; lang=&quot;EN-US&quot;&gt;&lt;font style=&quot;font-size: 12px;&quot;&gt;Ivan&lt;/font&gt;&lt;/span&gt;&lt;/div&gt;&lt;div&gt;&lt;span style=&quot;line-height: 107%; font-family: &amp;quot;Times New Roman&amp;quot;, serif;&quot; lang=&quot;EN-US&quot;&gt;&lt;font style=&quot;font-size: 12px;&quot;&gt;Denis&lt;/font&gt;&lt;/span&gt;&lt;/div&gt;&lt;div&gt;&lt;span style=&quot;line-height: 107%; font-family: &amp;quot;Times New Roman&amp;quot;, serif;&quot; lang=&quot;EN-US&quot;&gt;&lt;font style=&quot;font-size: 12px;&quot;&gt;Yana&lt;/font&gt;&lt;/span&gt;&lt;/div&gt;&lt;div&gt;&lt;span style=&quot;line-height: 107%; font-family: &amp;quot;Times New Roman&amp;quot;, serif;&quot; lang=&quot;EN-US&quot;&gt;&lt;font style=&quot;font-size: 12px;&quot;&gt;Ilya&lt;/font&gt;&lt;/span&gt;&lt;/div&gt;&lt;div&gt;&lt;span style=&quot;line-height: 107%; font-family: &amp;quot;Times New Roman&amp;quot;, serif;&quot; lang=&quot;EN-US&quot;&gt;&lt;font style=&quot;font-size: 12px;&quot;&gt;Dmitry&lt;/font&gt;&lt;/span&gt;&lt;/div&gt;&lt;div&gt;&lt;span style=&quot;line-height: 107%; font-family: &amp;quot;Times New Roman&amp;quot;, serif;&quot; lang=&quot;EN-US&quot;&gt;&lt;font style=&quot;font-size: 12px;&quot;&gt;Ivan&lt;/font&gt;&lt;/span&gt;&lt;/div&gt;" style="text;html=1;align=center;verticalAlign=middle;whiteSpace=wrap;rounded=0;" vertex="1" parent="1">
          <mxGeometry x="430" y="140" width="130" height="160" as="geometry" />
        </mxCell>
        <mxCell id="XOXxncbkgTdSZFHKZBEe-13" value="&lt;span style=&quot;line-height: 107%; font-family: &amp;quot;Times New Roman&amp;quot;, serif;&quot; lang=&quot;EN-US&quot;&gt;&lt;font style=&quot;font-size: 10px;&quot;&gt;Name&lt;/font&gt;&lt;/span&gt;" style="text;html=1;align=center;verticalAlign=middle;whiteSpace=wrap;rounded=0;" vertex="1" parent="1">
          <mxGeometry x="430" y="120" width="130" height="20" as="geometry" />
        </mxCell>
        <mxCell id="XOXxncbkgTdSZFHKZBEe-18" value="" style="endArrow=none;html=1;entryX=1;entryY=1;entryDx=0;entryDy=0;" edge="1" parent="1">
          <mxGeometry width="50" height="50" relative="1" as="geometry">
            <mxPoint x="270" y="90" as="sourcePoint" />
            <mxPoint x="559.9999999999999" y="90" as="targetPoint" />
          </mxGeometry>
        </mxCell>
        <mxCell id="XOXxncbkgTdSZFHKZBEe-19" value="" style="endArrow=none;html=1;entryX=1;entryY=1;entryDx=0;entryDy=0;" edge="1" parent="1">
          <mxGeometry width="50" height="50" relative="1" as="geometry">
            <mxPoint x="270" y="180" as="sourcePoint" />
            <mxPoint x="559.9999999999999" y="180" as="targetPoint" />
          </mxGeometry>
        </mxCell>
        <mxCell id="XOXxncbkgTdSZFHKZBEe-20" value="" style="endArrow=none;html=1;entryX=1;entryY=1;entryDx=0;entryDy=0;" edge="1" parent="1">
          <mxGeometry width="50" height="50" relative="1" as="geometry">
            <mxPoint x="270" y="170" as="sourcePoint" />
            <mxPoint x="559.9999999999999" y="170" as="targetPoint" />
          </mxGeometry>
        </mxCell>
      </root>
    </mxGraphModel>
  </diagram>
</mxfile>
